<?xml version="1.0"?>
<svg width="44" height="44" xmlns="http://www.w3.org/2000/svg" xmlns:svg="http://www.w3.org/2000/svg">
 <style>path {
  fill: #000;
}

@media (prefers-color-scheme: dark) {
  path {
    fill: #fff;
  }
}

</style>
 <!---->
 <defs>
  <linearGradient gradientTransform="rotate(25)" id="e15c6ea2-6d3b-4238-b4b3-f92805ac9568" x1="0%" x2="100%" y1="0%" y2="0%">
   <stop offset="0%" stop-color="#6e7aec"></stop>
   <stop offset="100%" stop-color="#00C4EE"></stop>
  </linearGradient>
 </defs>
 <!---->
 <g class="layer">
  <title>Layer 1</title>
  <g fill="whitesmoke" id="7a9d7ebb-6f49-4f1a-882d-3aa8968e6ed3" transform="matrix(2.32493 0 0 2.32493 93.4421 127.134)">
   <path d="m-10.33483,-41.725613l0,-0.86l-4.8,0l0,-8.82l-0.88,0l0,9.68l5.68,0zm7.05,-2.12l-0.83,-0.18c-0.25,0.95 -1.09,1.68 -2.35,1.68c-1.04,0 -2.52,-0.56 -2.54,-2.69l5.74,0c0,-2.57 -1.21,-3.86 -3.27,-3.86c-1.86,0 -3.36,1.38 -3.36,3.64c0,2.22 1.23,3.69 3.4,3.69c1.71,0 2.87,-0.95 3.21,-2.28zm-5.72,-1.87c0.14,-1.6 1.21,-2.4 2.45,-2.4c1.67,0 2.3,1.08 2.4,2.4l-4.85,0zm8.21,3.99l0,-3.59c0,-0.7 0.08,-1.29 0.35,-1.73c0.26,-0.47 0.94,-1.04 1.96,-1.04c0.64,0 1.09,0.17 1.4,0.49c0.32,0.35 0.47,0.94 0.47,1.95l0,3.92l0.87,0l0,-4.05c0,-1.09 -0.15,-1.82 -0.49,-2.25c-0.43,-0.55 -1.03,-0.86 -2.06,-0.86c-1.24,0 -2.24,0.73 -2.5,1.58l0,-1.41l-0.84,0l0,6.99l0.84,0zm6.42,-1.54c0.84,1.02 2.22,1.7 3.85,1.7c2.24,0 3.57,-0.96 3.57,-2.7c0,-1.36 -0.63,-2.18 -2.59,-2.62l-1.49,-0.33c-1.46,-0.34 -1.82,-0.9 -1.82,-1.75c0,-0.8 0.46,-1.79 2.35,-1.79c1.19,0 2.17,0.47 2.76,1.14l0.61,-0.67c-0.94,-0.99 -2.04,-1.3 -3.3,-1.3c-2.2,0 -3.38,1.04 -3.38,2.7c0,1.23 0.63,2.14 2.2,2.49l1.46,0.34c1.89,0.42 2.24,1.04 2.24,1.89c0,0.81 -0.49,1.76 -2.54,1.76c-1.37,0 -2.56,-0.6 -3.24,-1.49l-0.68,0.63zm10,4.07l0,-3.82c0.41,0.84 1.26,1.45 2.6,1.45c1.89,0 3.25,-1.31 3.25,-3.68c0,-2.29 -1.24,-3.65 -3.08,-3.65c-1.44,0 -2.42,0.77 -2.77,1.62l0,-1.44l-0.84,0l0,9.52l0.84,0zm-0.01,-6.08c0,-1.79 1.12,-2.87 2.59,-2.87c1.38,0 2.4,1.05 2.4,2.92c0,1.91 -1.1,2.88 -2.45,2.88c-1.44,0 -2.54,-0.83 -2.54,-2.93zm13.59,1.43l-0.83,-0.18c-0.25,0.95 -1.09,1.68 -2.35,1.68c-1.03,0 -2.52,-0.56 -2.53,-2.69l5.74,0c0,-2.57 -1.22,-3.86 -3.28,-3.86c-1.86,0 -3.36,1.38 -3.36,3.64c0,2.22 1.23,3.69 3.4,3.69c1.71,0 2.87,-0.95 3.21,-2.28zm-5.71,-1.87c0.14,-1.6 1.2,-2.4 2.45,-2.4c1.66,0 2.29,1.08 2.39,2.4l-4.84,0zm13.41,1.66l-0.84,-0.15c-0.14,1.01 -0.99,1.85 -2.3,1.85c-1.14,0 -2.59,-0.72 -2.59,-2.93c0,-1.89 1.21,-2.81 2.58,-2.81c1.6,0 2.13,1.09 2.25,1.93l0.86,-0.16c-0.17,-1.51 -1.28,-2.57 -3.1,-2.57c-1.93,0 -3.47,1.34 -3.47,3.64c0,2.32 1.4,3.69 3.42,3.69c1.8,0 2.95,-1.06 3.19,-2.49zm4.76,2.27l-0.18,-0.71c-0.2,0.08 -0.55,0.16 -0.9,0.16c-0.52,0 -0.78,-0.22 -0.89,-0.57c-0.07,-0.24 -0.09,-0.62 -0.09,-1.12l0,-3.96l1.78,0l0,-0.73l-1.78,0l0,-1.89l-0.85,0l0,1.89l-1.09,0l0,0.73l1.09,0l0,4.03c0,0.57 0.01,0.99 0.12,1.41c0.2,0.7 0.82,0.98 1.52,0.98c0.51,0 0.96,-0.09 1.27,-0.22zm7.39,-3.43c0,-2.31 -1.5,-3.68 -3.37,-3.68c-1.93,0 -3.56,1.38 -3.56,3.65c0,2.28 1.4,3.68 3.53,3.68c1.86,0 3.4,-1.4 3.4,-3.65zm-0.87,-0.01c0,1.87 -1.21,2.87 -2.53,2.87c-1.46,0 -2.65,-1 -2.65,-2.92c0,-1.9 1.28,-2.82 2.66,-2.82c1.32,0 2.52,0.93 2.52,2.87zm3.39,3.5l0,-3.55c0,-0.81 0.09,-1.35 0.34,-1.8c0.26,-0.48 0.81,-1.02 1.65,-1.02c0.24,0 0.49,0.04 0.7,0.09l0.17,-0.79c-0.24,-0.07 -0.55,-0.13 -0.8,-0.13c-1.16,0 -1.88,0.81 -2.06,1.64l0,-1.43l-0.84,0l0,6.99l0.84,0z" id="svg_2"></path>
  </g>
  <g fill="url('#e15c6ea2-6d3b-4238-b4b3-f92805ac9568')" id="8720a876-f833-4e91-84f2-5fb22de7088f" transform="matrix(1.35027 0 0 1.35027 40 128.396)">
   <path d="m-13.623596,-94.088486c8.271,0 15,6.729 15,15s-6.729,15 -15,15s-15,-6.729 -15,-15s6.729,-15 15,-15m0,-1c-8.837,0 -16,7.163 -16,16s7.163,16 16,16s16,-7.163 16,-16s-7.163,-16 -16,-16z" id="svg_3"></path>
   <path d="m-13.623596,-88.043486l8.955,8.955l-8.955,8.955l-8.955,-8.955l8.955,-8.955m0,-1.414l-10.369,10.369l10.369,10.369l10.369,-10.369l-10.369,-10.369z" id="svg_4"></path>
  </g>
 </g>
</svg>